<?xml version="1.0" encoding="UTF-8" standalone="no"?> <svg width="64" height="64" viewBox="0 0 64 64" fill="none" xmlns="http://www.w3.org/2000/svg">
<path d="M58.6299 41.69L51.1699 37.39L58.6299 33.08C58.8188 32.97 58.9754 32.8123 59.0843 32.6228C59.1932 32.4333 59.2505 32.2186 59.2505 32C59.2505 31.7815 59.1932 31.5667 59.0843 31.3772C58.9754 31.1877 58.8188 31.0301 58.6299 30.92L51.1799 26.61L58.5899 22.33C58.7995 22.2217 58.9732 22.055 59.0899 21.85C59.1727 21.7082 59.2267 21.5515 59.2489 21.3888C59.2711 21.2261 59.261 21.0606 59.2192 20.9018C59.1774 20.743 59.1047 20.594 59.0053 20.4633C58.9059 20.3326 58.7818 20.2227 58.6399 20.14L32.6399 5.14002C32.4492 5.03223 32.2339 4.97559 32.0149 4.97559C31.7959 4.97559 31.5806 5.03223 31.3899 5.14002L5.38991 20.14C5.19873 20.2494 5.03983 20.4073 4.92933 20.5979C4.81882 20.7884 4.76062 21.0048 4.76062 21.225C4.76062 21.4453 4.81882 21.6616 4.92933 21.8522C5.03983 22.0427 5.19873 22.2006 5.38991 22.31L12.8399 26.61L5.37991 30.92C5.19107 31.0301 5.03439 31.1877 4.92549 31.3772C4.81659 31.5667 4.75928 31.7815 4.75928 32C4.75928 32.2186 4.81659 32.4333 4.92549 32.6228C5.03439 32.8123 5.19107 32.97 5.37991 33.08L12.8399 37.39L5.38991 41.69C5.19873 41.7994 5.03983 41.9573 4.92933 42.1479C4.81882 42.3384 4.76062 42.5548 4.76062 42.775C4.76062 42.9953 4.81882 43.2116 4.92933 43.4022C5.03983 43.5927 5.19873 43.7506 5.38991 43.86L31.3899 58.86C31.5778 58.9585 31.7879 59.0067 31.9999 59C32.221 58.9983 32.438 58.9397 32.6299 58.83L58.6299 43.83C58.8186 43.7186 58.9749 43.56 59.0836 43.3697C59.1922 43.1794 59.2493 42.9641 59.2493 42.745C59.2493 42.5259 59.1922 42.3106 59.0836 42.1203C58.9749 41.9301 58.8186 41.7714 58.6299 41.66V41.69ZM31.9999 7.66002L55.4999 21.22L31.9999 34.79L8.49991 21.22L31.9999 7.66002ZM15.3299 28.06L31.3299 37.32C31.5179 37.4306 31.7318 37.4893 31.9499 37.49C32.171 37.4883 32.388 37.4297 32.5799 37.32L48.5799 28.06L55.4999 32L31.9999 45.57L8.49991 32L15.3299 28.06ZM31.9999 56.34L8.49991 42.78L15.3299 38.78L31.3299 48.04C31.5177 48.1508 31.7318 48.2093 31.9499 48.2093C32.168 48.2093 32.3821 48.1508 32.5699 48.04L48.6199 38.78L55.4499 42.78L31.9999 56.34Z" fill="#ffffff"/>
</svg>
