<svg xmlns="http://www.w3.org/2000/svg" id="Layer_1" fill="#ffc600" data-name="Layer 1" viewBox="0 0 512 512" height="60px" width="60px"><title>Credit Card</title><path d="M448,85.333H64a53.394,53.394,0,0,0-53.333,53.333V373.333A53.4,53.4,0,0,0,64,426.667H448a53.4,53.4,0,0,0,53.333-53.333V138.667A53.394,53.394,0,0,0,448,85.333ZM32,170.667H480v32H32Zm0-32a32.035,32.035,0,0,1,32-32H448a32.035,32.035,0,0,1,32,32v10.667H32ZM480,373.333a32.035,32.035,0,0,1-32,32H64a32.035,32.035,0,0,1-32-32V224H480Z"></path><path d="M74.667,277.333h74.667a10.667,10.667,0,1,0,0-21.333H74.667a10.667,10.667,0,1,0,0,21.333Z"></path><path d="M373.333,373.333h53.333A21.354,21.354,0,0,0,448,352V330.667a21.354,21.354,0,0,0-21.333-21.333H373.333A21.354,21.354,0,0,0,352,330.667V352A21.354,21.354,0,0,0,373.333,373.333Zm0-42.667h53.333V352H373.333l-.016-21.333Z"></path></svg>